<?xml version="1.0" encoding="iso-8859-1"?>
<!-- Generator: Adobe Illustrator 19.0.0, SVG Export Plug-In . SVG Version: 6.00 Build 0)  -->
<svg version="1.1" id="Layer_1" xmlns="http://www.w3.org/2000/svg" xmlns:xlink="http://www.w3.org/1999/xlink" x="0px" y="0px"
	 viewBox="0 0 512 512" style="enable-background:new 0 0 512 512;" xml:space="preserve">
<circle style="fill:#B9EAFF;" cx="256" cy="256" r="256"/>
<path style="fill:#35CCFF;" d="M287.48,510.071C414.011,494.554,512,386.725,512,256c0-19.656-2.222-38.793-6.416-57.18
	l-30.258-30.256l-136.442,57.622l-78.42-78.576l-78.219-3.831l31.856,31.856l-11.985,6.887l-13.96-13.96l-122.149,57.26
	l103.572,103.572l-12.817,50.672L287.48,510.071z"/>
<g>
	<path style="fill:#2B9153;" d="M90.724,154.284c8.526-0.66,2.62,11.648,21.618,12.535s33.409,7.977,64.853,0
		c31.444-7.977-6.551,51.274-21.618,50.135c-15.067-1.139-46.294,23.169-32.427,37.602c13.867,14.433,6.442-6.077,32.427,0
		s48.912,24.055,43.236,37.602s-44.329,64.948-32.427,87.736c11.9,22.788-5.787,4.811-21.618-12.535
		c-15.831-17.344-11.028-50.262-21.618-62.669c-10.59-12.407-32.427-23.042-21.618-37.602c10.809-14.56,18.234-7.216,10.809-25.067
		c-7.425-17.851-24.019,7.47-43.236-12.535s1.529-38.488-10.809-50.135c-5.754-5.432-10.843-11.25-14.636-15.912
		c-1.483-1.822,0.202-4.701,2.207-3.768C54.675,163.769,69.735,155.912,90.724,154.284z"/>
	<path style="fill:#2B9153;" d="M182.243,143.781c0,0,34.013,9.037,20.573,32.208c-13.44,23.171,32.144-18.377,51.438-20.482
		S253.943,123.39,182.243,143.781z"/>
</g>
<path style="fill:#005D5E;" d="M256,143.193v12.021C262.834,153.653,263.128,147.882,256,143.193z"/>
<g>
	<path style="fill:#2B9153;" d="M457.828,161.427c-42.875-13.941-59.387,15.284-86.04,0c-26.652-15.284-57.359,0-57.359,0
		c-19.409,10.245-42.296,11.254-71.699,16.629c-15.353,2.807-18.304,8.076-18.475,25.357c-0.053,5.406,3.948,14.336-7.085,18.672
		c-25.978,10.207-19.108,25.641,0,24.647c15.694-0.819,16.425-25.753,31.199-22.187c5.453,1.315,8.449,8.78,13.052,12.619
		c-13.396,1.153-35.604,16.298-45.371,40.148c-11.374,27.779,9.652,44.566,34.125,59.354s6.549,65.15,17.061,79.138
		c10.512,13.99,10.512,7.194,17.061-19.784c6.549-26.979,31.366-68.546,34.125-98.923c2.757-30.377-15.855-12.79-34.125-19.785
		c-14.317-5.48-16.672-26.671-17.022-35.581c1.376,0.998,2.757,1.948,4.134,2.839c28.534,18.475,47.656-13.772,57.359,16.629
		c5.089,15.943,12.728,28.882,18.842,37.585c3.658,5.206,10.666,4.434,13.417-1.477c3.587-7.709,10.762-16.379,25.102-19.48
		c27.955-6.046,15.21-20.154,43.02-66.513C456.957,164.954,500.703,175.366,457.828,161.427z"/>
	<path style="fill:#2B9153;" d="M216.048,277.309c-11.374,27.779,9.652,44.566,34.123,59.354c2.296,1.388,4.22,3.089,5.827,5.044
		v-103.46C242.643,242.254,224.589,256.452,216.048,277.309z"/>
</g>
<g>
	<path style="fill:#005D5E;" d="M457.828,161.427c-42.875-13.941-59.387,15.284-86.04,0c-26.653-15.284-57.359,0-57.359,0
		c-16.384,8.649-35.261,10.721-58.428,14.388v55.096c1.726,2.232,3.42,4.584,5.42,6.249c-1.681,0.145-3.503,0.512-5.42,1.086v103.46
		c15.531,18.877,1.708,61.418,11.235,74.095c10.512,13.988,10.514,7.194,17.062-19.785c6.549-26.979,31.366-68.548,34.125-98.923
		c2.757-30.377-15.855-12.79-34.125-19.785c-14.317-5.482-16.672-26.671-17.022-35.581c1.376,0.998,2.755,1.948,4.134,2.839
		c28.534,18.477,47.656-13.772,57.36,16.629c5.089,15.943,12.728,28.882,18.842,37.585c3.658,5.208,10.666,4.434,13.415-1.476
		c3.587-7.709,10.762-16.379,25.102-19.48c27.955-6.046,15.21-20.154,43.02-66.513C456.957,164.954,500.703,175.368,457.828,161.427
		z"/>
	<path style="fill:#005D5E;" d="M373.776,329.557c5.506-3.036,14.603-6.437,23.83-0.555s17.88-0.129,23.83-0.555
		c11.9-0.85,52.688,15.139,0.833,63.514s-2.343-28.967-57.26-30.434C336.568,360.767,365.989,333.85,373.776,329.557z"/>
</g>
<g>
</g>
<g>
</g>
<g>
</g>
<g>
</g>
<g>
</g>
<g>
</g>
<g>
</g>
<g>
</g>
<g>
</g>
<g>
</g>
<g>
</g>
<g>
</g>
<g>
</g>
<g>
</g>
<g>
</g>
</svg>
